<svg width="512" height="512" viewBox="0 0 512 512" fill="none" xmlns="http://www.w3.org/2000/svg">
<g clip-path="url(#clip0_1_3)">
<path d="M6 256C6 50.125 50.125 6 256 6C461.875 6 506 50.125 506 256C506 461.875 461.875 506 256 506C50.125 506 6 461.875 6 256Z" fill="white"/>
<path fill-rule="evenodd" clip-rule="evenodd" d="M256 0C45.184 0 0 45.184 0 256C0 466.816 45.184 512 256 512C466.816 512 512 466.816 512 256C512 45.184 466.816 0 256 0ZM72.0705 80.784H94.5345V75.664H66.6945V101.776H72.1985C72.9665 99.8987 74.1825 98.4267 75.8465 97.36C77.5532 96.2507 79.5372 95.696 81.7985 95.696C85.1265 95.696 87.6438 96.6133 89.3505 98.448C91.0572 100.24 91.9105 102.8 91.9105 106.128C91.9105 109.456 91.0572 112.144 89.3505 114.192C87.6438 116.197 85.1052 117.2 81.7345 117.2C79.0038 117.2 76.7425 116.517 74.9505 115.152C73.1585 113.787 71.9852 111.888 71.4305 109.456H65.7345C66.3318 113.296 68.0172 116.368 70.7905 118.672C73.5638 120.976 77.1905 122.128 81.6705 122.128C85.1692 122.128 88.0918 121.424 90.4385 120.016C92.8278 118.608 94.5985 116.688 95.7505 114.256C96.9025 111.824 97.4785 109.072 97.4785 106C97.4785 103.397 96.9878 100.944 96.0065 98.64C95.0678 96.2933 93.4892 94.3947 91.2705 92.944C89.0518 91.4507 86.1718 90.704 82.6305 90.704C80.4118 90.704 78.3425 91.152 76.4225 92.048C74.5025 92.9013 73.0518 94.0107 72.0705 95.376V80.784ZM109.634 78.16C106.903 80.3787 105.389 83.4507 105.09 87.376H110.786C111.085 85.072 112.045 83.2373 113.666 81.872C115.287 80.5067 117.421 79.824 120.066 79.824C122.797 79.824 124.887 80.5067 126.338 81.872C127.831 83.2373 128.578 85.0507 128.578 87.312C128.578 89.9573 127.575 91.92 125.57 93.2C123.565 94.4373 120.599 95.0773 116.674 95.12H115.138V99.984H116.61C120.919 99.984 124.141 100.688 126.274 102.096C128.407 103.504 129.474 105.808 129.474 109.008C129.474 111.483 128.685 113.509 127.106 115.088C125.57 116.624 123.309 117.392 120.322 117.392C117.335 117.392 114.946 116.581 113.154 114.96C111.362 113.339 110.317 111.248 110.018 108.688H104.386C104.727 113.04 106.349 116.411 109.25 118.8C112.151 121.147 115.863 122.32 120.386 122.32C123.501 122.32 126.167 121.765 128.386 120.656C130.605 119.547 132.269 118.032 133.378 116.112C134.487 114.149 135.042 111.952 135.042 109.52C135.042 106.277 134.231 103.653 132.61 101.648C130.989 99.6427 128.791 98.2987 126.018 97.616V97.296C128.45 96.7413 130.413 95.504 131.906 93.584C133.442 91.664 134.21 89.3813 134.21 86.736C134.21 84.4747 133.655 82.448 132.546 80.656C131.479 78.864 129.879 77.456 127.746 76.432C125.655 75.3653 123.159 74.832 120.258 74.832C115.906 74.832 112.365 75.9413 109.634 78.16ZM273.879 346V167.312H238.039V346H273.879ZM130.096 404.392V449H124.272V404.392H130.096ZM155.318 449.576C152.032 449.576 149.046 448.829 146.358 447.336C143.712 445.843 141.622 443.731 140.086 441C138.592 438.227 137.846 435.027 137.846 431.4C137.846 427.816 138.614 424.659 140.15 421.928C141.728 419.155 143.862 417.043 146.55 415.592C149.238 414.099 152.246 413.352 155.574 413.352C158.902 413.352 161.91 414.099 164.598 415.592C167.286 417.043 169.398 419.133 170.934 421.864C172.512 424.595 173.302 427.773 173.302 431.4C173.302 435.027 172.491 438.227 170.87 441C169.291 443.731 167.136 445.843 164.406 447.336C161.675 448.829 158.646 449.576 155.318 449.576ZM155.318 444.456C157.408 444.456 159.371 443.965 161.206 442.984C163.04 442.003 164.512 440.531 165.622 438.568C166.774 436.605 167.35 434.216 167.35 431.4C167.35 428.584 166.795 426.195 165.686 424.232C164.576 422.269 163.126 420.819 161.334 419.88C159.542 418.899 157.6 418.408 155.51 418.408C153.376 418.408 151.414 418.899 149.622 419.88C147.872 420.819 146.464 422.269 145.398 424.232C144.331 426.195 143.798 428.584 143.798 431.4C143.798 434.259 144.31 436.669 145.334 438.632C146.4 440.595 147.808 442.067 149.558 443.048C151.307 443.987 153.227 444.456 155.318 444.456ZM178.783 431.336C178.783 427.752 179.509 424.616 180.959 421.928C182.41 419.197 184.394 417.085 186.911 415.592C189.471 414.099 192.33 413.352 195.487 413.352C198.218 413.352 200.757 413.992 203.103 415.272C205.45 416.509 207.242 418.152 208.479 420.2V401.64H214.367V449H208.479V442.408C207.327 444.499 205.621 446.227 203.359 447.592C201.098 448.915 198.453 449.576 195.423 449.576C192.309 449.576 189.471 448.808 186.911 447.272C184.394 445.736 182.41 443.581 180.959 440.808C179.509 438.035 178.783 434.877 178.783 431.336ZM208.479 431.4C208.479 428.755 207.946 426.451 206.879 424.488C205.813 422.525 204.362 421.032 202.527 420.008C200.735 418.941 198.751 418.408 196.575 418.408C194.399 418.408 192.415 418.92 190.623 419.944C188.831 420.968 187.402 422.461 186.335 424.424C185.269 426.387 184.735 428.691 184.735 431.336C184.735 434.024 185.269 436.371 186.335 438.376C187.402 440.339 188.831 441.853 190.623 442.92C192.415 443.944 194.399 444.456 196.575 444.456C198.751 444.456 200.735 443.944 202.527 442.92C204.362 441.853 205.813 440.339 206.879 438.376C207.946 436.371 208.479 434.045 208.479 431.4ZM227.217 408.232C226.108 408.232 225.169 407.848 224.401 407.08C223.633 406.312 223.249 405.373 223.249 404.264C223.249 403.155 223.633 402.216 224.401 401.448C225.169 400.68 226.108 400.296 227.217 400.296C228.284 400.296 229.18 400.68 229.905 401.448C230.673 402.216 231.057 403.155 231.057 404.264C231.057 405.373 230.673 406.312 229.905 407.08C229.18 407.848 228.284 408.232 227.217 408.232ZM230.033 413.928V449H224.209V413.928H230.033ZM257.047 413.288C261.314 413.288 264.77 414.589 267.415 417.192C270.061 419.752 271.383 423.464 271.383 428.328V449H265.623V429.16C265.623 425.661 264.749 422.995 262.999 421.16C261.25 419.283 258.861 418.344 255.831 418.344C252.759 418.344 250.306 419.304 248.471 421.224C246.679 423.144 245.783 425.939 245.783 429.608V449H239.959V413.928H245.783V418.92C246.935 417.128 248.493 415.741 250.455 414.76C252.461 413.779 254.658 413.288 257.047 413.288ZM312.897 430.12C312.897 431.229 312.833 432.403 312.705 433.64H284.673C284.886 437.096 286.059 439.805 288.193 441.768C290.369 443.688 292.993 444.648 296.065 444.648C298.582 444.648 300.673 444.072 302.337 442.92C304.043 441.725 305.238 440.147 305.921 438.184H312.193C311.254 441.555 309.377 444.307 306.561 446.44C303.745 448.531 300.246 449.576 296.065 449.576C292.737 449.576 289.75 448.829 287.105 447.336C284.502 445.843 282.454 443.731 280.961 441C279.467 438.227 278.721 435.027 278.721 431.4C278.721 427.773 279.446 424.595 280.897 421.864C282.347 419.133 284.374 417.043 286.977 415.592C289.622 414.099 292.651 413.352 296.065 413.352C299.393 413.352 302.337 414.077 304.897 415.528C307.457 416.979 309.419 418.984 310.785 421.544C312.193 424.061 312.897 426.92 312.897 430.12ZM306.881 428.904C306.881 426.685 306.39 424.787 305.409 423.208C304.427 421.587 303.083 420.371 301.377 419.56C299.713 418.707 297.857 418.28 295.809 418.28C292.865 418.28 290.347 419.219 288.257 421.096C286.209 422.973 285.035 425.576 284.737 428.904H306.881ZM343.343 404.392V432.616C343.343 436.584 344.303 439.528 346.223 441.448C348.185 443.368 350.895 444.328 354.351 444.328C357.764 444.328 360.431 443.368 362.351 441.448C364.313 439.528 365.295 436.584 365.295 432.616V404.392H371.119V432.552C371.119 436.264 370.372 439.4 368.879 441.96C367.385 444.477 365.359 446.355 362.799 447.592C360.281 448.829 357.444 449.448 354.287 449.448C351.129 449.448 348.271 448.829 345.711 447.592C343.193 446.355 341.188 444.477 339.695 441.96C338.244 439.4 337.519 436.264 337.519 432.552V404.392H343.343ZM386.658 404.392V449H380.834V404.392H386.658Z" fill="#EB3B5A"/>
</g>
<defs>
<clipPath id="clip0_1_3">
<rect width="512" height="512" fill="white"/>
</clipPath>
</defs>
</svg>
