<svg width="300" height="180" viewBox="0 0 300 180" fill="none" xmlns="http://www.w3.org/2000/svg">
<path d="M133 79C133 95.0163 120.016 108 104 108C87.9837 108 75 95.0163 75 79C75 62.9837 87.9837 50 104 50C120.016 50 133 62.9837 133 79ZM78.2002 79C78.2002 93.2488 89.7512 104.8 104 104.8C118.249 104.8 129.8 93.2488 129.8 79C129.8 64.7512 118.249 53.2002 104 53.2002C89.7512 53.2002 78.2002 64.7512 78.2002 79Z" fill="white" fill-opacity="0.3"/>
<path d="M225 79C225 95.0163 212.016 108 196 108C179.984 108 167 95.0163 167 79C167 62.9837 179.984 50 196 50C212.016 50 225 62.9837 225 79ZM170.2 79C170.2 93.2488 181.751 104.8 196 104.8C210.249 104.8 221.8 93.2488 221.8 79C221.8 64.7512 210.249 53.2002 196 53.2002C181.751 53.2002 170.2 64.7512 170.2 79Z" fill="white" fill-opacity="0.3"/>
<path d="M131.4 79C132.284 79 133.005 79.7171 132.956 80.5995C132.617 86.7372 130.334 92.6243 126.417 97.3974C122.161 102.584 116.238 106.134 109.658 107.443C103.077 108.752 96.2466 107.738 90.3295 104.576C84.4124 101.413 79.775 96.2964 77.2075 90.0978C74.64 83.8992 74.3011 77.0021 76.2487 70.5817C78.1963 64.1613 82.3099 58.6149 87.8885 54.8874C93.467 51.1599 100.165 49.482 106.842 50.1396C112.987 50.7449 118.764 53.2937 123.344 57.3941C124.002 57.9836 124 59.0005 123.375 59.6253V59.6253C122.75 60.2502 121.74 60.246 121.077 59.6611C117.024 56.0819 111.937 53.8571 106.529 53.3245C100.589 52.7394 94.6294 54.2321 89.6664 57.5483C84.7034 60.8644 81.0438 65.7988 79.3111 71.5107C77.5785 77.2226 77.8799 83.3586 80.1641 88.8732C82.4483 94.3877 86.574 98.9396 91.8381 101.753C97.1022 104.567 103.179 105.469 109.033 104.304C114.888 103.14 120.157 99.9812 123.943 95.3672C127.391 91.1666 129.415 85.996 129.75 80.5992C129.805 79.7171 130.516 79 131.4 79V79Z" fill="#FF1744"/>
<path d="M209.7 55.271C210.142 54.5057 211.123 54.2398 211.863 54.7231C215.077 56.8233 217.847 59.5439 220.007 62.731C222.466 66.3603 224.071 70.4999 224.7 74.8387C225.329 79.1775 224.966 83.6024 223.639 87.7808C222.311 91.9591 220.054 95.7821 217.036 98.9623C214.018 102.142 210.318 104.597 206.215 106.141C202.112 107.686 197.712 108.28 193.346 107.878C188.981 107.477 184.763 106.091 181.01 103.825C177.714 101.835 174.852 99.2116 172.587 96.1118C172.065 95.3983 172.279 94.4043 173.021 93.923V93.923C173.762 93.4417 174.749 93.6558 175.275 94.3657C177.274 97.0615 179.782 99.3457 182.664 101.086C186.003 103.102 189.755 104.335 193.639 104.692C197.523 105.048 201.438 104.52 205.088 103.146C208.738 101.772 212.03 99.5886 214.714 96.7594C217.399 93.9302 219.408 90.5291 220.589 86.8118C221.77 83.0945 222.092 79.1579 221.533 75.2979C220.973 71.4379 219.546 67.7551 217.357 64.5263C215.469 61.7398 213.057 59.3541 210.26 57.4993C209.524 57.0108 209.258 56.0363 209.7 55.271V55.271Z" fill="#FF1744"/>
<rect x="65" y="128" width="170" height="2.5" rx="1.25" fill="white" fill-opacity="0.3"/>
<rect x="65" y="128" width="97.574" height="2.5" rx="1.25" fill="#FF1744"/>
</svg>
