<svg width="512" height="512" viewBox="0 0 512 512" fill="none" xmlns="http://www.w3.org/2000/svg">
<g clip-path="url(#clip0_1_3)">
<path d="M0 256C0 45.184 45.184 0 256 0C466.816 0 512 45.184 512 256C512 466.816 466.816 512 256 512C45.184 512 0 466.816 0 256Z" fill="#6153CC"/>
<path d="M273.879 167.312V346H238.039V167.312H273.879Z" fill="white"/>
<path d="M110.535 87.784H88.0705V102.376C89.0518 101.011 90.5025 99.9013 92.4225 99.048C94.3425 98.152 96.4118 97.704 98.6305 97.704C102.172 97.704 105.052 98.4507 107.271 99.944C109.489 101.395 111.068 103.293 112.007 105.64C112.988 107.944 113.479 110.397 113.479 113C113.479 116.072 112.903 118.824 111.751 121.256C110.599 123.688 108.828 125.608 106.439 127.016C104.092 128.424 101.169 129.128 97.6705 129.128C93.1905 129.128 89.5638 127.976 86.7905 125.672C84.0172 123.368 82.3318 120.296 81.7345 116.456H87.4305C87.9852 118.888 89.1585 120.787 90.9505 122.152C92.7425 123.517 95.0038 124.2 97.7345 124.2C101.105 124.2 103.644 123.197 105.351 121.192C107.057 119.144 107.911 116.456 107.911 113.128C107.911 109.8 107.057 107.24 105.351 105.448C103.644 103.613 101.127 102.696 97.7985 102.696C95.5372 102.696 93.5532 103.251 91.8465 104.36C90.1825 105.427 88.9665 106.899 88.1985 108.776H82.6945V82.664H110.535V87.784ZM121.09 94.376C121.389 90.4507 122.903 87.3787 125.634 85.16C128.365 82.9413 131.906 81.832 136.258 81.832C139.159 81.832 141.655 82.3653 143.746 83.432C145.879 84.456 147.479 85.864 148.546 87.656C149.655 89.448 150.21 91.4747 150.21 93.736C150.21 96.3813 149.442 98.664 147.906 100.584C146.413 102.504 144.45 103.741 142.018 104.296V104.616C144.791 105.299 146.989 106.643 148.61 108.648C150.231 110.653 151.042 113.277 151.042 116.52C151.042 118.952 150.487 121.149 149.378 123.112C148.269 125.032 146.605 126.547 144.386 127.656C142.167 128.765 139.501 129.32 136.386 129.32C131.863 129.32 128.151 128.147 125.25 125.8C122.349 123.411 120.727 120.04 120.386 115.688H126.018C126.317 118.248 127.362 120.339 129.154 121.96C130.946 123.581 133.335 124.392 136.322 124.392C139.309 124.392 141.57 123.624 143.106 122.088C144.685 120.509 145.474 118.483 145.474 116.008C145.474 112.808 144.407 110.504 142.274 109.096C140.141 107.688 136.919 106.984 132.61 106.984H131.138V102.12H132.674C136.599 102.077 139.565 101.437 141.57 100.2C143.575 98.92 144.578 96.9573 144.578 94.312C144.578 92.0507 143.831 90.2373 142.338 88.872C140.887 87.5067 138.797 86.824 136.066 86.824C133.421 86.824 131.287 87.5067 129.666 88.872C128.045 90.2373 127.085 92.072 126.786 94.376H121.09Z" fill="white"/>
<path d="M130.096 403.392V448H124.272V403.392H130.096ZM155.318 448.576C152.032 448.576 149.046 447.829 146.358 446.336C143.712 444.843 141.622 442.731 140.086 440C138.592 437.227 137.846 434.027 137.846 430.4C137.846 426.816 138.614 423.659 140.15 420.928C141.728 418.155 143.862 416.043 146.55 414.592C149.238 413.099 152.246 412.352 155.574 412.352C158.902 412.352 161.91 413.099 164.598 414.592C167.286 416.043 169.398 418.133 170.934 420.864C172.512 423.595 173.302 426.773 173.302 430.4C173.302 434.027 172.491 437.227 170.87 440C169.291 442.731 167.136 444.843 164.406 446.336C161.675 447.829 158.646 448.576 155.318 448.576ZM155.318 443.456C157.408 443.456 159.371 442.965 161.206 441.984C163.04 441.003 164.512 439.531 165.622 437.568C166.774 435.605 167.35 433.216 167.35 430.4C167.35 427.584 166.795 425.195 165.686 423.232C164.576 421.269 163.126 419.819 161.334 418.88C159.542 417.899 157.6 417.408 155.51 417.408C153.376 417.408 151.414 417.899 149.622 418.88C147.872 419.819 146.464 421.269 145.398 423.232C144.331 425.195 143.798 427.584 143.798 430.4C143.798 433.259 144.31 435.669 145.334 437.632C146.4 439.595 147.808 441.067 149.558 442.048C151.307 442.987 153.227 443.456 155.318 443.456ZM178.783 430.336C178.783 426.752 179.509 423.616 180.959 420.928C182.41 418.197 184.394 416.085 186.911 414.592C189.471 413.099 192.33 412.352 195.487 412.352C198.218 412.352 200.757 412.992 203.103 414.272C205.45 415.509 207.242 417.152 208.479 419.2V400.64H214.367V448H208.479V441.408C207.327 443.499 205.621 445.227 203.359 446.592C201.098 447.915 198.453 448.576 195.423 448.576C192.309 448.576 189.471 447.808 186.911 446.272C184.394 444.736 182.41 442.581 180.959 439.808C179.509 437.035 178.783 433.877 178.783 430.336ZM208.479 430.4C208.479 427.755 207.946 425.451 206.879 423.488C205.813 421.525 204.362 420.032 202.527 419.008C200.735 417.941 198.751 417.408 196.575 417.408C194.399 417.408 192.415 417.92 190.623 418.944C188.831 419.968 187.402 421.461 186.335 423.424C185.269 425.387 184.735 427.691 184.735 430.336C184.735 433.024 185.269 435.371 186.335 437.376C187.402 439.339 188.831 440.853 190.623 441.92C192.415 442.944 194.399 443.456 196.575 443.456C198.751 443.456 200.735 442.944 202.527 441.92C204.362 440.853 205.813 439.339 206.879 437.376C207.946 435.371 208.479 433.045 208.479 430.4ZM227.217 407.232C226.108 407.232 225.169 406.848 224.401 406.08C223.633 405.312 223.249 404.373 223.249 403.264C223.249 402.155 223.633 401.216 224.401 400.448C225.169 399.68 226.108 399.296 227.217 399.296C228.284 399.296 229.18 399.68 229.905 400.448C230.673 401.216 231.057 402.155 231.057 403.264C231.057 404.373 230.673 405.312 229.905 406.08C229.18 406.848 228.284 407.232 227.217 407.232ZM230.033 412.928V448H224.209V412.928H230.033ZM257.047 412.288C261.314 412.288 264.77 413.589 267.415 416.192C270.061 418.752 271.383 422.464 271.383 427.328V448H265.623V428.16C265.623 424.661 264.749 421.995 262.999 420.16C261.25 418.283 258.861 417.344 255.831 417.344C252.759 417.344 250.306 418.304 248.471 420.224C246.679 422.144 245.783 424.939 245.783 428.608V448H239.959V412.928H245.783V417.92C246.935 416.128 248.493 414.741 250.455 413.76C252.461 412.779 254.658 412.288 257.047 412.288ZM312.897 429.12C312.897 430.229 312.833 431.403 312.705 432.64H284.673C284.886 436.096 286.059 438.805 288.193 440.768C290.369 442.688 292.993 443.648 296.065 443.648C298.582 443.648 300.673 443.072 302.337 441.92C304.043 440.725 305.238 439.147 305.921 437.184H312.193C311.254 440.555 309.377 443.307 306.561 445.44C303.745 447.531 300.246 448.576 296.065 448.576C292.737 448.576 289.75 447.829 287.105 446.336C284.502 444.843 282.454 442.731 280.961 440C279.467 437.227 278.721 434.027 278.721 430.4C278.721 426.773 279.446 423.595 280.897 420.864C282.347 418.133 284.374 416.043 286.977 414.592C289.622 413.099 292.651 412.352 296.065 412.352C299.393 412.352 302.337 413.077 304.897 414.528C307.457 415.979 309.419 417.984 310.785 420.544C312.193 423.061 312.897 425.92 312.897 429.12ZM306.881 427.904C306.881 425.685 306.39 423.787 305.409 422.208C304.427 420.587 303.083 419.371 301.377 418.56C299.713 417.707 297.857 417.28 295.809 417.28C292.865 417.28 290.347 418.219 288.257 420.096C286.209 421.973 285.035 424.576 284.737 427.904H306.881ZM343.343 403.392V431.616C343.343 435.584 344.303 438.528 346.223 440.448C348.185 442.368 350.895 443.328 354.351 443.328C357.764 443.328 360.431 442.368 362.351 440.448C364.313 438.528 365.295 435.584 365.295 431.616V403.392H371.119V431.552C371.119 435.264 370.372 438.4 368.879 440.96C367.385 443.477 365.359 445.355 362.799 446.592C360.281 447.829 357.444 448.448 354.287 448.448C351.129 448.448 348.271 447.829 345.711 446.592C343.193 445.355 341.188 443.477 339.695 440.96C338.244 438.4 337.519 435.264 337.519 431.552V403.392H343.343ZM386.658 403.392V448H380.834V403.392H386.658Z" fill="white"/>
</g>
<defs>
<clipPath id="clip0_1_3">
<rect width="512" height="512" fill="white"/>
</clipPath>
</defs>
</svg>
